<svg xmlns="http://www.w3.org/2000/svg" xmlns:xlink="http://www.w3.org/1999/xlink" fill="none" version="1.1" width="24" height="24" viewBox="0 0 24 24"><g><g><rect x="0" y="0" width="24" height="24" rx="0" fill="#FFFFFF" fill-opacity="0"/><rect x="0" y="0" width="24" height="24" rx="0" fill-opacity="0" stroke-opacity="1" stroke="#FFFFFF" fill="none" stroke-width="0"/></g><g><g transform="matrix(0.7071067690849304,0.7071067690849304,-0.7071067690849304,0.7071067690849304,4.899495111535496,-7.8284270896210595)"><path d="M19.509615124816897,3.1411199999998534L24.486995124816893,2.2522419999998533C25.172095124816895,2.1298939999998536,25.769595124816895,2.7273639999998536,25.647295124816893,3.4124699999998533L24.758395124816893,8.389879999999852C24.169395124816894,11.688069999999854,21.587565124816894,14.269899999999854,18.289375124816893,14.858899999999853L13.311965124816894,15.747799999999852C12.626859124816894,15.870099999999855,12.029389124816895,15.272599999999855,12.151737124816895,14.587499999999853L13.040615124816895,9.610119999999853C13.629615124816894,6.311919999999853,16.211415124816895,3.7301199999998538,19.509615124816897,3.1411199999998534ZM19.773315124816897,4.617759999999853Q17.763475124816893,4.976679999999853,16.319825124816894,6.420329999999853Q14.876175124816895,7.863979999999853,14.517255124816895,9.873819999999853L13.754495124816895,14.144999999999854L18.025675124816892,13.382199999999852Q20.035515124816897,13.023299999999853,21.479165124816895,11.579669999999854Q22.922795124816894,10.136019999999853,23.281695124816892,8.126179999999852L24.044495124816894,3.8549999999998534L19.773315124816897,4.617759999999853Z" fill-rule="evenodd" fill="#FFFFFF" fill-opacity="1"/></g><g><ellipse cx="11.899495124816895" cy="11.899495124816895" rx="1.25" ry="1.25" fill-opacity="0" stroke-opacity="1" stroke="#FFFFFF" fill="none" stroke-width="1.5"/></g></g></g></svg>