<svg xmlns="http://www.w3.org/2000/svg" xmlns:xlink="http://www.w3.org/1999/xlink" fill="none" version="1.1" width="16" height="16" viewBox="0 0 16 16"><defs><clipPath id="master_svg0_7_42747/7_41120"><rect x="0" y="0" width="16" height="16" rx="0"/></clipPath></defs><g clip-path="url(#master_svg0_7_42747/7_41120)"><g><path d="M13.1241453125,4.464338360290528C13.2062453125,4.382378360290527,13.2985453125,4.289888360290528,13.3585453125,4.184298360290527C13.8079453125,3.6263783602905275,13.8616453125,2.781878360290527,13.4845453125,2.168983360290527C13.1047453125,1.5516393602905274,12.5416453125,1.2386083602905273,11.8110453125,1.2386083602905273L2.7697753125,1.2386083602905273C2.5945753125,1.2386083602905273,2.4135253125,1.2386083602905273,2.2558653125,1.2883270602905272C1.8698353125,1.3817023602905274,1.5166643125000001,1.6098583602905274,1.2607113125,1.9313893602905274C0.9999923125,2.2587483602905274,0.8564453125,2.6634383602905274,0.8564453125,3.0708383602905274C0.8564453125,3.5995183602905274,1.0578983124999999,4.068048360290527,1.4238983125,4.390768360290528C2.5864753125,5.5134483602905275,3.7471753125,6.673698360290527,4.8703053125,7.796908360290527L4.8703053125,11.504008360290527L4.8722453125,11.535208360290527C4.9332853125,12.023308360290528,5.3040853125,12.289908360290527,5.7528953125,12.097208360290526L5.7607153125,12.093508360290528C6.0035353125,11.972108360290527,6.1427453125,11.727708360290528,6.1427453125,11.422908360290528L6.1427453125,7.6117983602905275C6.1427453125,7.3545483602905275,6.0634653125,7.144768360290527,5.9070253125,6.988328360290527C5.3460253125,6.427248360290528,4.7932753125000005,5.844198360290528,4.2588153124999995,5.280268360290528C3.7077853125,4.698858360290528,3.1379453125,4.097668360290527,2.5423653125000003,3.5020883602905273L2.5131953124999997,3.4726283602905275L2.4780353125000003,3.4552783602905275C2.4697553125000002,3.4495883602905275,2.4514753125,3.425748360290527,2.4376053124999997,3.4075283602905273C2.4223653125,3.3877983602905273,2.4075253125,3.3691283602905275,2.3919253124999997,3.3520883602905274C2.2890853125,3.2203283602905275,2.2673953124999997,3.108338360290527,2.3154153125,2.9572283602905274C2.3988953125,2.7682983602905273,2.5663053125,2.551468360290527,2.7696953124999997,2.551468360290527L11.8921453125,2.551468360290527C12.0031453125,2.551468360290527,12.1102453125,2.6114683602905275,12.1935453125,2.7205183602905274C12.3016453125,2.8620483602905273,12.3418453125,3.049168360290527,12.2974453125,3.212528360290527C12.2747453125,3.302908360290527,12.2370453125,3.3438383602905275,12.1230453125,3.4579983602905275C10.8669453125,4.673528360290527,9.6670653125,5.873298360290527,8.3968053125,7.143498360290527L8.3900553125,7.150328360290527C8.261355312500001,7.278878360290527,8.1136753125,7.465998360290527,8.1136753125,7.773878360290527L8.1136753125,14.180008360290527C8.1136753125,14.258708360290527,8.1136753125,14.480708360290528,8.275895312500001,14.658308360290528Q8.325165312500001,14.769508360290528,8.5375653125,14.850308360290528Q8.8000653125,14.950008360290527,9.0564953125,14.836408360290527L9.1234653125,14.786308360290528C9.3861153125,14.589208360290527,9.3861153125,14.282208360290527,9.3861153125,14.098808360290528L9.3861153125,8.040188360290529C10.0142453125,7.413578360290527,10.6651053125,6.804048360290527,11.2949453125,6.214248360290528C11.9363453125,5.613808360290528,12.5420453125,5.046498360290528,13.1241453125,4.464338360290528L13.1241453125,4.464338360290528ZM14.5275453125,12.671908360290526L11.0812453125,12.671908360290526C10.7211453125,12.671908360290526,10.5059653125,12.964508360290527,10.5059653125,13.247408360290528L10.5059653125,13.409708360290526C10.5059653125,13.769808360290527,10.7983853125,13.985008360290527,11.0812453125,13.985008360290527L14.5275453125,13.985008360290527C14.8877453125,13.985008360290527,15.1029453125,13.692508360290528,15.1029453125,13.409708360290526L15.1029453125,13.247308360290527C15.1029453125,12.903208360290527,14.8717453125,12.671908360290526,14.5275453125,12.671908360290526L14.5275453125,12.671908360290526ZM14.5275453125,10.604298360290528L11.0812453125,10.604298360290528C10.7211453125,10.604298360290528,10.5059653125,10.896868360290528,10.5059653125,11.179768360290527L10.5059653125,11.301208360290527C10.5059653125,11.661508360290528,10.7983853125,11.876708360290527,11.0812453125,11.876708360290527L14.5275453125,11.876708360290527C14.8877453125,11.876708360290527,15.1029453125,11.584208360290527,15.1029453125,11.301208360290527L15.1029453125,11.179768360290527C15.1029453125,10.896878360290527,14.8877453125,10.604298360290528,14.5275453125,10.604298360290528ZM14.5275453125,8.617618360290528L11.0812453125,8.617618360290528C10.7211453125,8.617618360290528,10.5059653125,8.910188360290526,10.5059653125,9.193088360290528L10.5059653125,9.274188360290527C10.5059653125,9.634228360290527,10.7983853125,9.849498360290527,11.0812453125,9.849498360290527L14.5275453125,9.849498360290527C14.8877453125,9.849498360290527,15.1029453125,9.556998360290528,15.1029453125,9.274188360290527L15.1029453125,9.193088360290528C15.1029453125,8.848868360290528,14.8717453125,8.617618360290528,14.5275453125,8.617618360290528Z" fill="#3378FF" fill-opacity="1"/></g></g></svg>