<svg xmlns="http://www.w3.org/2000/svg" xmlns:xlink="http://www.w3.org/1999/xlink" fill="none" version="1.1" width="20" height="20" viewBox="0 0 20 20"><g><g><path d="M7.5,1.25C7.91421,1.25,8.25,1.585786,8.25,2L8.25,2.75L11.75,2.75L11.75,2C11.75,1.585786,12.08579,1.25,12.5,1.25C12.9142,1.25,13.25,1.585786,13.25,2L13.25,2.75L15.5,2.75C16.4665,2.75,17.25,3.5335,17.25,4.5L17.25,16.5C17.25,17.4665,16.4665,18.25,15.5,18.25L4.5,18.25C3.533502,18.25,2.75,17.4665,2.75,16.5L2.75,4.5C2.75,3.5335,3.533502,2.75,4.5,2.75L6.75,2.75L6.75,2C6.75,1.585786,7.08579,1.25,7.5,1.25ZM6.75,4.25L4.5,4.25C4.36193,4.25,4.25,4.36193,4.25,4.5L4.25,16.5C4.25,16.6381,4.36193,16.75,4.5,16.75L15.5,16.75C15.6381,16.75,15.75,16.6381,15.75,16.5L15.75,4.5C15.75,4.36193,15.6381,4.25,15.5,4.25L13.25,4.25L13.25,5C13.25,5.41421,12.9142,5.75,12.5,5.75C12.08579,5.75,11.75,5.41421,11.75,5L11.75,4.25L8.25,4.25L8.25,5C8.25,5.41421,7.91421,5.75,7.5,5.75C7.08579,5.75,6.75,5.41421,6.75,5L6.75,4.25ZM13,7.25C13.4142,7.25,13.75,7.58579,13.75,8C13.75,8.41421,13.4142,8.75,13,8.75L7,8.75C6.585789999999999,8.75,6.25,8.41421,6.25,8C6.25,7.58579,6.585789999999999,7.25,7,7.25L13,7.25ZM11,10.25C11.41421,10.25,11.75,10.58579,11.75,11C11.75,11.4142,11.41421,11.75,11,11.75L7,11.75C6.585789999999999,11.75,6.25,11.4142,6.25,11C6.25,10.58579,6.585789999999999,10.25,7,10.25L11,10.25ZM9,13.25C9.41421,13.25,9.75,13.5858,9.75,14C9.75,14.4142,9.41421,14.75,9,14.75L7,14.75C6.585789999999999,14.75,6.25,14.4142,6.25,14C6.25,13.5858,6.585789999999999,13.25,7,13.25L9,13.25Z" fill-rule="evenodd" fill="#6B778C" fill-opacity="1"/></g></g></svg>