<?xml version="1.0" encoding="UTF-8"?>
<svg width="24px" height="24px" viewBox="0 0 24 24" version="1.1" xmlns="http://www.w3.org/2000/svg" xmlns:xlink="http://www.w3.org/1999/xlink">
    <title>logo-plcs</title>
    <g id="页面-1" stroke="none" stroke-width="1" fill="none" fill-rule="evenodd">
        <g id="logo-plcs" fill="#FFFFFF" fill-rule="nonzero">
            <path d="M4.43949145,21.3002812 C2.943337,20.0847828 1.74603673,18.5193209 0.973787474,16.7282575 C3.9384712,15.0078117 6.99356459,12.7667951 9.52001256,10.2151859 C5.21487992,10.9094886 1.84398054,12.0787418 0.0301365563,12.806166 C0.0125568984,12.5393188 0,12.2712217 0,12 C0,9.91334236 0.535551719,7.95229664 1.47669126,6.24247474 C3.83801601,5.50380169 6.85418302,4.75637954 10.3255376,4.31955005 C8.99827343,2.93219456 7.70679642,1.93417352 6.68278135,1.25799396 C8.30136556,0.454327674 10.1252551,0 12.056506,0 C12.8325224,0 13.5903312,0.0756171232 14.3249097,0.214977606 C15.3639931,1.27424227 16.4099827,2.51223831 17.4019777,3.95021352 C18.6413436,3.97833559 19.9089625,4.05145297 21.2060901,4.19081346 C22.6827814,5.90376002 23.6816826,8.03416311 24,10.3820435 C22.8271857,10.1501927 21.668184,9.97208624 20.5311568,9.85522341 C21.4515775,12.1899802 22.1679485,14.8522029 22.5672579,17.8762629 C21.3429603,20.0410374 19.4650761,21.7896052 17.1979281,22.8551193 C17.1401664,18.6705552 16.4068435,15.1921675 15.3162769,12.3199667 C12.271229,15.8658473 8.34091979,18.9623998 4.43949145,21.3002812 Z M15.5159316,19.1023852 C15.5159316,19.1023852 13.1207032,19.6767003 10.5528175,19.314863 L6.74744938,22.7751276 C8.34908178,23.558796 10.1503689,24 12.0558782,24 C13.2663632,24 14.4335269,23.8206437 15.5360226,23.4900531 C15.6145032,21.6571191 15.6226652,20.0910322 15.5159316,19.1023852 Z"></path>
        </g>
    </g>
</svg>