<svg xmlns="http://www.w3.org/2000/svg" xmlns:xlink="http://www.w3.org/1999/xlink" fill="none" version="1.1" width="32" height="32" viewBox="0 0 32 32"><defs><mask id="master_svg0_0_2023"><g><rect x="0" y="0" width="32" height="32" rx="0" fill="#FFFFFF" fill-opacity="1"/></g></mask></defs><g mask="url(#master_svg0_0_2023)"><g><rect x="0" y="0" width="32" height="32" rx="0" fill="#D8D8D8" fill-opacity="0.009999999776482582"/></g><g><g transform="matrix(0.7071067690849304,0.7071067690849304,-0.7071067690849304,0.7071067690849304,9.196699231863022,-8.202795535326004)"><path d="M20.61798,11.79707L33.2175,7.625466C33.998000000000005,7.367042,34.739599999999996,8.10858,34.4811,8.8891L30.3095,21.488599999999998C30.2131,21.7798,29.988500000000002,22.0106,29.7,22.114800000000002L16.504550000000002,26.8824C15.70774,27.1702,14.936359,26.3989,15.224247,25.6021L19.991799999999998,12.40659C20.09601,12.11814,20.32683,11.89347,20.61798,11.79707" fill-rule="evenodd" fill="#E77516" fill-opacity="1"/></g><g transform="matrix(0.7071067690849304,0.7071067690849304,-0.7071067690849304,0.7071067690849304,4.954058617353439,-9.960154920816422)"><path d="M20.61798,5.79707L33.2175,1.6254659999999999C33.998000000000005,1.367042,34.739599999999996,2.10858,34.4811,2.8891L30.3095,15.4886C30.2131,15.7798,29.988500000000002,16.0106,29.7,16.114800000000002L16.504550000000002,20.8824C15.70774,21.1702,14.936359,20.3989,15.224247,19.6021L19.991799999999998,6.40659C20.09601,6.11814,20.32683,5.89347,20.61798,5.79707" fill-rule="evenodd" fill="#FF9A20" fill-opacity="1"/></g><g transform="matrix(0.7071067690849304,0.7071067690849304,-0.7071067690849304,0.7071067690849304,0.8431461211491076,-11.66295072997067)" style="opacity:0.800000011920929;"><path d="M20.61798,-0.016638305358579686L33.2175,-4.188242305358579C33.998000000000005,-4.44666630535858,34.739599999999996,-3.7051283053585795,34.4811,-2.9246083053585794L30.3095,9.67489169464142C30.2131,9.96609169464142,29.988500000000002,10.19689169464142,29.7,10.301091694641421L16.504550000000002,15.068691694641421C15.70774,15.356491694641422,14.936359,14.585191694641422,15.224247,13.78839169464142L19.991799999999998,0.5928816946414202C20.09601,0.30443169464142095,20.32683,0.07976169464142036,20.61798,-0.016638305358579686" fill-rule="evenodd" fill="#FFD285" fill-opacity="1"/></g></g></g></svg>