<svg xmlns="http://www.w3.org/2000/svg" xmlns:xlink="http://www.w3.org/1999/xlink" fill="none" version="1.1" width="33" height="32" viewBox="0 0 33 32"><g><g><rect x="1" y="0" width="32" height="32" rx="0" fill="#FFFFFF" fill-opacity="0"/></g><g><g><ellipse cx="11" cy="14" rx="11" ry="11" fill="#FFAFD8" fill-opacity="1"/></g><g><ellipse cx="22" cy="14" rx="11" ry="11" fill="#E77AFD" fill-opacity="1"/></g><g style="opacity:0.800000011920929;"><path d="M16.49995,23.52627800941467C16.70785,23.406278009414674,16.91161,23.279578009414674,17.11122,23.146178009414673C17.31083,23.012878009414674,17.50586,22.873078009414673,17.69631,22.726878009414673C17.88677,22.580678009414672,18.07225,22.428478009414672,18.25274,22.270278009414675C18.433230000000002,22.111978009414674,18.60835,21.947978009414673,18.778100000000002,21.778178009414674C18.94786,21.608378009414672,19.11188,21.43327800941467,19.27017,21.252778009414673C19.428449999999998,21.072278009414674,19.58066,20.886778009414673,19.72681,20.696278009414673C19.87295,20.505978009414672,20.01271,20.310978009414672,20.146079999999998,20.111378009414672C20.27946,19.911678009414672,20.40616,19.70787800941467,20.52619,19.499978009414672C20.64622,19.292078009414674,20.75933,19.080478009414673,20.8655,18.865178009414674C20.971690000000002,18.64987800941467,21.070700000000002,18.431278009414672,21.162599999999998,18.209478009414674C21.2544,17.987778009414672,21.339,17.763178009414673,21.4161,17.53577800941467C21.493299999999998,17.308578009414674,21.563000000000002,17.078978009414673,21.6251,16.846978009414673C21.6872,16.615178009414674,21.7417,16.38147800941467,21.7885,16.145978009414673C21.8354,15.910578009414673,21.874499999999998,15.673778009414672,21.9058,15.435778009414673C21.9371,15.197778009414673,21.9606,14.958978009414674,21.976300000000002,14.719478009414672C21.992,14.479878009414673,21.9999,14.240098009414673,21.9999,14.000028009414672C21.9999,13.759958009414673,21.992,13.520148009414672,21.976300000000002,13.280598009414673C21.9606,13.041048009414673,21.9371,12.802258009414674,21.9058,12.564248009414673C21.874499999999998,12.326228009414674,21.8354,12.089498009414672,21.7885,11.854048009414672C21.7417,11.618588009414673,21.6872,11.384918009414672,21.6251,11.153038009414672C21.563000000000002,10.921148009414672,21.493299999999998,10.691538009414673,21.4161,10.464208009414673C21.339,10.236888009414674,21.2544,10.012328009414674,21.162599999999998,9.790528009414672C21.070700000000002,9.568738009414673,20.971690000000002,9.350188009414673,20.8655,9.134868009414673C20.75933,8.919568009414672,20.64622,8.707958009414673,20.52619,8.500048009414673C20.40616,8.292148009414673,20.27946,8.088398009414673,20.146079999999998,7.888778009414673C20.01271,7.689168009414673,19.87295,7.494138009414673,19.7268,7.303678009414673C19.58066,7.113228009414673,19.428449999999998,6.927748009414673,19.27016,6.747258009414673C19.11187,6.566768009414673,18.94786,6.391638009414673,18.778100000000002,6.221888009414673C18.60835,6.052128009414673,18.433230000000002,5.8881080094146725,18.25274,5.729818009414673C18.07225,5.571538009414673,17.88677,5.419317009414673,17.69631,5.2731730094146725C17.50586,5.127028009414673,17.31083,4.987268009414673,17.11122,4.853892009414673C16.91161,4.720517009414673,16.70785,4.5938130094146725,16.49995,4.473778009414673C16.29205,4.5938130094146725,16.08829,4.720517009414673,15.88868,4.853892009414673C15.68908,4.987268009414673,15.49404,5.127028009414673,15.30358,5.2731730094146725C15.11313,5.419317009414673,14.92766,5.571538009414673,14.747160000000001,5.729818009414673C14.56667,5.8881080094146725,14.39155,6.052128009414673,14.22179,6.221888009414673C14.05204,6.391638009414673,13.888020000000001,6.566768009414673,13.72973,6.747258009414673C13.571439999999999,6.927748009414673,13.41923,7.113228009414673,13.27309,7.303678009414673C13.12695,7.494138009414673,12.98719,7.689168009414673,12.85381,7.888778009414673C12.72044,8.088398009414673,12.59374,8.292148009414673,12.473700000000001,8.500048009414673C12.35367,8.707958009414673,12.24056,8.919568009414672,12.13439,9.134868009414673C12.02821,9.350188009414673,11.929186,9.568738009414673,11.837317,9.790528009414672C11.745447,10.012328009414674,11.660929,10.236888009414674,11.583762,10.464208009414673C11.506596,10.691538009414673,11.436945,10.921148009414672,11.374812,11.153038009414672C11.312678,11.384928009414672,11.258195,11.618598009414672,11.211359999999999,11.854048009414672C11.164525,12.089498009414672,11.125441,12.326228009414674,11.0941056,12.564248009414673C11.0627707,12.802258009414674,11.0392527,13.041048009414673,11.0235516,13.280598009414673C11.00785053,13.520148009414672,11,13.759958009414673,11,14.000028009414672C11,14.240098009414673,11.00785053,14.479878009414673,11.0235516,14.719478009414672C11.0392527,14.958978009414674,11.0627707,15.197778009414673,11.0941056,15.435778009414673C11.125441,15.673778009414672,11.164525,15.910578009414673,11.211359999999999,16.145978009414673C11.258195,16.38147800941467,11.312679,16.615178009414674,11.374813,16.846978009414673C11.436946,17.078978009414673,11.506596,17.308578009414674,11.583762,17.53577800941467C11.660929,17.763178009414673,11.745447,17.987778009414672,11.837317,18.209478009414674C11.929186,18.431278009414672,12.02821,18.64987800941467,12.13439,18.865178009414674C12.24056,19.080478009414673,12.35367,19.292078009414674,12.473700000000001,19.499978009414672C12.59374,19.70787800941467,12.72044,19.911678009414672,12.85381,20.111378009414672C12.98719,20.310978009414672,13.12695,20.505978009414672,13.27309,20.696278009414673C13.41924,20.886778009414673,13.57145,21.072278009414674,13.72973,21.252778009414673C13.888020000000001,21.43327800941467,14.05204,21.608378009414672,14.22179,21.778178009414674C14.39155,21.947978009414673,14.56667,22.111978009414674,14.747160000000001,22.270278009414675C14.92766,22.428478009414672,15.11313,22.580678009414672,15.30358,22.726878009414673C15.49404,22.873078009414673,15.68908,23.012878009414674,15.88868,23.146178009414673C16.08829,23.279578009414674,16.29205,23.406278009414674,16.49995,23.52627800941467Z" fill-rule="evenodd" fill="#883996" fill-opacity="1"/></g></g></g></svg>