<svg xmlns="http://www.w3.org/2000/svg" xmlns:xlink="http://www.w3.org/1999/xlink" fill="none" version="1.1" width="32" height="32" viewBox="0 0 32 32"><g><g><rect x="0" y="0" width="32" height="32" rx="0" fill="#FFFFFF" fill-opacity="0"/></g><g><g><g><path d="M7.328839118118286,4.496916770935059C9.539049118118285,6.1159367709350585,12.196169118118286,6.999996770935059,14.999969118118287,6.999996770935059C17.772469118118288,6.999996770935059,20.401569118118285,6.135726770935059,22.597769118118286,4.550276670935059L28.450969118118287,12.65830677093506C24.564769118118285,15.463716770935058,19.891469118118287,17.00001677093506,14.999969118118287,17.00001677093506C10.052999118118287,17.00001677093506,5.329919118118286,15.428616770935058,1.4194691181182861,12.56408677093506L7.328839118118286,4.496916770935059Z" fill="#6AEA67" fill-opacity="1"/></g><g transform="matrix(1,0,0,-1,0,53.99999809265137)"><path d="M7.328839118118286,26.999999046325684C9.539049118118285,28.619019046325683,12.196169118118286,29.503079046325684,14.999969118118287,29.503079046325684C17.772469118118288,29.503079046325684,20.401569118118285,28.638809046325683,22.597769118118286,27.053358946325684L28.450969118118287,35.16138904632568C24.564769118118285,37.96679904632568,19.891469118118287,39.50309904632569,14.999969118118287,39.50309904632569C10.052999118118287,39.50309904632569,5.329919118118286,37.93169904632568,1.4194691181182861,35.06716904632569L7.328839118118286,26.999999046325684Z" fill="#16B381" fill-opacity="1"/></g><g style="opacity:0.800000011920929;"><path d="M22.498863383102417,15.748473229370116C20.116563383102417,16.569523229370116,17.588863383102417,16.999843229370118,15.000043383102417,16.999843229370118C12.410963383102416,16.999843229370118,9.883223383102417,16.569423229370116,7.501206872102417,15.748473229370116C9.883223383102417,14.927523229370117,12.410963383102416,14.497097969370117,15.000043383102417,14.497097969370117C17.588863383102417,14.497097969370117,20.116563383102417,14.927424229370118,22.498863383102417,15.748473229370116Z" fill-rule="evenodd" fill="#074C05" fill-opacity="1"/></g></g></g></g></svg>