<svg xmlns="http://www.w3.org/2000/svg" xmlns:xlink="http://www.w3.org/1999/xlink" fill="none" version="1.1" width="16" height="16" viewBox="0 0 16 16"><defs><clipPath id="master_svg0_7_43689/7_030637"><rect x="0" y="0" width="16" height="16" rx="0"/></clipPath></defs><g clip-path="url(#master_svg0_7_43689/7_030637)"><g><path d="M13.123901171875,4.464338360290528C13.206001171875,4.382378360290527,13.298301171875,4.289888360290528,13.358301171875,4.184298360290527C13.807701171875,3.6263783602905275,13.861401171875,2.781878360290527,13.484301171875,2.168983360290527C13.104501171875,1.5516393602905274,12.541401171875,1.2386083602905273,11.810801171875,1.2386083602905273L2.769531171875,1.2386083602905273C2.594331171875,1.2386083602905273,2.413281171875,1.2386083602905273,2.255621171875,1.2883270602905272C1.869591171875,1.3817023602905274,1.5164201718750001,1.6098583602905274,1.260467171875,1.9313893602905274C0.999748171875,2.2587483602905274,0.856201171875,2.6634383602905274,0.856201171875,3.0708383602905274C0.856201171875,3.5995183602905274,1.0576541718749999,4.068048360290527,1.423654171875,4.390768360290528C2.586231171875,5.5134483602905275,3.746931171875,6.673698360290527,4.870061171875,7.796908360290527L4.870061171875,11.504008360290527L4.872001171875,11.535208360290527C4.933041171875,12.023308360290528,5.303841171875,12.289908360290527,5.752651171875,12.097208360290526L5.760471171875,12.093508360290528C6.003291171875,11.972108360290527,6.142501171875,11.727708360290528,6.142501171875,11.422908360290528L6.142501171875,7.6117983602905275C6.142501171875,7.3545483602905275,6.063221171875,7.144768360290527,5.906781171875,6.988328360290527C5.345781171875,6.427248360290528,4.7930311718750005,5.844198360290528,4.2585711718749995,5.280268360290528C3.707541171875,4.698858360290528,3.137701171875,4.097668360290527,2.5421211718750003,3.5020883602905273L2.5129511718749997,3.4726283602905275L2.4777911718750003,3.4552783602905275C2.4695111718750002,3.4495883602905275,2.451231171875,3.425748360290527,2.4373611718749997,3.4075283602905273C2.422121171875,3.3877983602905273,2.407281171875,3.3691283602905275,2.3916811718749997,3.3520883602905274C2.288841171875,3.2203283602905275,2.2671511718749997,3.108338360290527,2.315171171875,2.9572283602905274C2.398651171875,2.7682983602905273,2.566061171875,2.551468360290527,2.7694511718749997,2.551468360290527L11.891901171875,2.551468360290527C12.002901171875,2.551468360290527,12.110001171875,2.6114683602905275,12.193301171875,2.7205183602905274C12.301401171875,2.8620483602905273,12.341601171875,3.049168360290527,12.297201171875,3.212528360290527C12.274501171875,3.302908360290527,12.236801171875,3.3438383602905275,12.122801171875,3.4579983602905275C10.866701171875,4.673528360290527,9.666821171875,5.873298360290527,8.396561171875,7.143498360290527L8.389811171875,7.150328360290527C8.261111171875001,7.278878360290527,8.113431171875,7.465998360290527,8.113431171875,7.773878360290527L8.113431171875,14.180008360290527C8.113431171875,14.258708360290527,8.113431171875,14.480708360290528,8.275651171875001,14.658308360290528Q8.324921171875001,14.769508360290528,8.537321171875,14.850308360290528Q8.799821171875,14.950008360290527,9.056251171875,14.836408360290527L9.123221171875,14.786308360290528C9.385871171875,14.589208360290527,9.385871171875,14.282208360290527,9.385871171875,14.098808360290528L9.385871171875,8.040188360290529C10.014001171875,7.413578360290527,10.664861171875,6.804048360290527,11.294701171875,6.214248360290528C11.936101171875,5.613808360290528,12.541801171875,5.046498360290528,13.123901171875,4.464338360290528L13.123901171875,4.464338360290528ZM14.527301171875,12.671908360290526L11.081001171875,12.671908360290526C10.720901171875,12.671908360290526,10.505721171875,12.964508360290527,10.505721171875,13.247408360290528L10.505721171875,13.409708360290526C10.505721171875,13.769808360290527,10.798141171875,13.985008360290527,11.081001171875,13.985008360290527L14.527301171875,13.985008360290527C14.887501171875,13.985008360290527,15.102701171875,13.692508360290528,15.102701171875,13.409708360290526L15.102701171875,13.247308360290527C15.102701171875,12.903208360290527,14.871501171875,12.671908360290526,14.527301171875,12.671908360290526L14.527301171875,12.671908360290526ZM14.527301171875,10.604298360290528L11.081001171875,10.604298360290528C10.720901171875,10.604298360290528,10.505721171875,10.896868360290528,10.505721171875,11.179768360290527L10.505721171875,11.301208360290527C10.505721171875,11.661508360290528,10.798141171875,11.876708360290527,11.081001171875,11.876708360290527L14.527301171875,11.876708360290527C14.887501171875,11.876708360290527,15.102701171875,11.584208360290527,15.102701171875,11.301208360290527L15.102701171875,11.179768360290527C15.102701171875,10.896878360290527,14.887501171875,10.604298360290528,14.527301171875,10.604298360290528ZM14.527301171875,8.617618360290528L11.081001171875,8.617618360290528C10.720901171875,8.617618360290528,10.505721171875,8.910188360290526,10.505721171875,9.193088360290528L10.505721171875,9.274188360290527C10.505721171875,9.634228360290527,10.798141171875,9.849498360290527,11.081001171875,9.849498360290527L14.527301171875,9.849498360290527C14.887501171875,9.849498360290527,15.102701171875,9.556998360290528,15.102701171875,9.274188360290527L15.102701171875,9.193088360290528C15.102701171875,8.848868360290528,14.871501171875,8.617618360290528,14.527301171875,8.617618360290528Z" fill="#3D3D3D" fill-opacity="1"/></g></g></svg>