<svg xmlns="http://www.w3.org/2000/svg" xmlns:xlink="http://www.w3.org/1999/xlink" fill="none" version="1.1" width="81" height="176" viewBox="0 0 81 176"><g><g transform="matrix(1,0,0,-1,0,346.99609375)"><path d="M0.306640625,174.498046875L1.306640625,174.498046875L25.306640625,174.498046875Q28.206140625,174.498046875,30.256340625,176.548296875Q32.306640625,178.598546875,32.306640625,181.498046875L32.306640625,332.498046875Q32.306640625,334.32804687500004,33.014340625,336.002046875Q33.697540625,337.617046875,34.942640625,338.86204687500003Q36.187840625,340.10704687500004,37.803140625,340.79004687500003Q39.476240625,341.498046875,41.306640625,341.498046875L71.260740625,341.498046875L71.260740625,346.298046875L81.306640625,340.498046875L71.260740625,334.698046875L71.260740625,339.498046875L41.306640625,339.498046875Q38.407140625,339.498046875,36.356940625,337.448046875Q34.306640625,335.398046875,34.306640625,332.498046875L34.306640625,181.498046875Q34.306640625,179.667666875,33.598940625,177.994536875Q32.915740625,176.379236875,31.670640625,175.134086875Q30.425440625,173.888934875,28.810140625,173.205721875Q27.137040625,172.498046875,25.306640625,172.498046875L1.306640625,172.498046875L0.306640625,172.498046875L0.306640625,174.498046875Z" fill-rule="evenodd" fill="#069068" fill-opacity="1"/></g></g></svg>