<svg xmlns="http://www.w3.org/2000/svg" xmlns:xlink="http://www.w3.org/1999/xlink" fill="none" version="1.1" width="81" height="176" viewBox="0 0 81 176"><g><g><path d="M0,3.59765625L1,3.59765625L25,3.59765625Q27.8995,3.59765625,29.9497,5.64790625Q32,7.69815625,32,10.59765625L32,161.59765625Q32,163.42765625,32.7077,165.10165625Q33.3909,166.71665625,34.636,167.96165625Q35.8812,169.20665625,37.4965,169.88965625Q39.1696,170.59765625,41,170.59765625L70.9541,170.59765625L70.9541,175.39765625L81,169.59765625L70.9541,163.79765625L70.9541,168.59765625L41,168.59765625Q38.1005,168.59765625,36.0503,166.54765625Q34,164.49765625,34,161.59765625L34,10.59765625Q34,8.76727625,33.2923,7.09414625Q32.6091,5.47884625,31.364,4.2336962499999995Q30.1188,2.98854425,28.5035,2.30533125Q26.8304,1.59765625,25,1.59765625L1,1.59765625L0,1.59765625L0,3.59765625Z" fill-rule="evenodd" fill="#069068" fill-opacity="1"/></g></g></svg>