<svg xmlns="http://www.w3.org/2000/svg" xmlns:xlink="http://www.w3.org/1999/xlink" fill="none" version="1.1" width="127" height="97" viewBox="0 0 127 97"><defs><linearGradient x1="0.5" y1="4.385380947269368e-15" x2="0.5" y2="1.667370080947876" id="master_svg0_0_3526"><stop offset="0%" stop-color="#069068" stop-opacity="1"/><stop offset="100%" stop-color="#FFFFFF" stop-opacity="1"/></linearGradient></defs><g transform="matrix(-1,0,0,1,253,0)"><path d="M127,50.736L127,0.5L126,0.5L126,50.736Q126,52.5999,127.31802,53.9179Q128.63604,55.236,130.5,55.236L248.5,55.236Q249.95,55.236,250.975,56.2611Q252,57.2862,252,58.736L252,96.5L253,96.5L253,58.736Q253,56.872,251.68200000000002,55.554Q250.364,54.2359,248.5,54.236L130.5,54.236Q129.05025,54.2359,128.02513,53.2108Q127,52.1857,127,50.736Z" fill-rule="evenodd" fill="url(#master_svg0_0_3526)" fill-opacity="1"/></g></svg>