<svg xmlns="http://www.w3.org/2000/svg" xmlns:xlink="http://www.w3.org/1999/xlink" fill="none" version="1.1" width="32" height="32" viewBox="0 0 32 32"><g><g><rect x="0" y="0" width="32" height="32" rx="0" fill="#FFFFFF" fill-opacity="0"/></g><g transform="matrix(-1,0,0,1,60,0)"><g><path d="M41,4C34.92487,4,30,8.92487,30,15C30,21.0751,34.92487,26,41,26L41,4Z" fill-rule="evenodd" fill="#CC5AF9" fill-opacity="1"/></g><g><path d="M50,4C43.92487,4,39,8.92487,39,15C39,21.0751,43.92487,26,50,26L50,4Z" fill-rule="evenodd" fill="#E09DFA" fill-opacity="1"/></g><g><path d="M59,4C52.92487,4,48,8.92487,48,15C48,21.0751,52.92487,26,59,26L59,4Z" fill-rule="evenodd" fill="#F3D3FF" fill-opacity="1"/></g></g></g></svg>